<?xml version="1.0" encoding="utf-8"?>
<!-- Generator: Adobe Illustrator 24.1.1, SVG Export Plug-In . SVG Version: 6.00 Build 0)  -->
<svg version="1.1" id="Layer_1" xmlns="http://www.w3.org/2000/svg" xmlns:xlink="http://www.w3.org/1999/xlink" x="0px" y="0px"
	 viewBox="0 0 178 181" style="enable-background:new 0 0 178 181;" xml:space="preserve">
<style type="text/css">
	.st0{fill:#FFFFFF;}
	.st1{fill:#E9E9E9;}
	.st2{fill:#FD5B2F;}
	.st3{fill:none;stroke:#E9E9E9;stroke-width:1.0447;}
</style>
<g>
	
		<image style="overflow:visible;opacity:0.5;" width="165" height="159" xlink:href="2419B275.png"  transform="matrix(1 0 0 1 8.9379 12.3516)">
	</image>
	<g>
		<g>
			<path class="st0" d="M43.7,36.2h102.4c2.9,0,5.2,2.3,5.2,5.2v102.4c0,2.9-2.3,5.2-5.2,5.2H43.7c-2.9,0-5.2-2.3-5.2-5.2V41.4
				C38.5,38.5,40.9,36.2,43.7,36.2z"/>
		</g>
		<path class="st1" d="M77.2,71.7h7.3c0.6,0,1,0.5,1,1V80c0,0.6-0.5,1-1,1h-7.3c-0.6,0-1-0.5-1-1v-7.3
			C76.1,72.1,76.6,71.7,77.2,71.7z"/>
		<path class="st1" d="M77.2,86.3h7.3c0.6,0,1,0.5,1,1v7.3c0,0.6-0.5,1-1,1h-7.3c-0.6,0-1-0.5-1-1v-7.3
			C76.1,86.8,76.6,86.3,77.2,86.3z"/>
		<path class="st1" d="M77.2,100.9h7.3c0.6,0,1,0.5,1,1v7.3c0,0.6-0.5,1-1,1h-7.3c-0.6,0-1-0.5-1-1V102
			C76.1,101.4,76.6,100.9,77.2,100.9z"/>
		<path class="st1" d="M77.2,115.6h7.3c0.6,0,1,0.5,1,1v7.3c0,0.6-0.5,1-1,1h-7.3c-0.6,0-1-0.5-1-1v-7.3
			C76.1,116,76.6,115.6,77.2,115.6z"/>
		<path class="st1" d="M77.2,130.2h7.3c0.6,0,1,0.5,1,1v7.3c0,0.6-0.5,1-1,1h-7.3c-0.6,0-1-0.5-1-1v-7.3
			C76.1,130.7,76.6,130.2,77.2,130.2z"/>
		<path class="st2" d="M63.6,86.3h7.3c0.6,0,1,0.5,1,1v7.3c0,0.6-0.5,1-1,1h-7.3c-0.6,0-1-0.5-1-1v-7.3C62.6,86.8,63,86.3,63.6,86.3
			z"/>
		<path class="st1" d="M63.6,100.9h7.3c0.6,0,1,0.5,1,1v7.3c0,0.6-0.5,1-1,1h-7.3c-0.6,0-1-0.5-1-1V102
			C62.6,101.4,63,100.9,63.6,100.9z"/>
		<path class="st1" d="M63.6,115.6h7.3c0.6,0,1,0.5,1,1v7.3c0,0.6-0.5,1-1,1h-7.3c-0.6,0-1-0.5-1-1v-7.3
			C62.6,116,63,115.6,63.6,115.6z"/>
		<path class="st1" d="M63.6,130.2h7.3c0.6,0,1,0.5,1,1v7.3c0,0.6-0.5,1-1,1h-7.3c-0.6,0-1-0.5-1-1v-7.3
			C62.6,130.7,63,130.2,63.6,130.2z"/>
		<path class="st1" d="M50,86.3h7.3c0.6,0,1,0.5,1,1v7.3c0,0.6-0.5,1-1,1H50c-0.6,0-1-0.5-1-1v-7.3C49,86.8,49.4,86.3,50,86.3z"/>
		<path class="st1" d="M50,100.9h7.3c0.6,0,1,0.5,1,1v7.3c0,0.6-0.5,1-1,1H50c-0.6,0-1-0.5-1-1V102C49,101.4,49.4,100.9,50,100.9z"
			/>
		<path class="st1" d="M50,115.6h7.3c0.6,0,1,0.5,1,1v7.3c0,0.6-0.5,1-1,1H50c-0.6,0-1-0.5-1-1v-7.3C49,116,49.4,115.6,50,115.6z"/>
		<path class="st2" d="M50,130.2h7.3c0.6,0,1,0.5,1,1v7.3c0,0.6-0.5,1-1,1H50c-0.6,0-1-0.5-1-1v-7.3C49,130.7,49.4,130.2,50,130.2z"
			/>
		<path class="st1" d="M90.8,71.7h7.3c0.6,0,1,0.5,1,1V80c0,0.6-0.5,1-1,1h-7.3c-0.6,0-1-0.5-1-1v-7.3
			C89.7,72.1,90.2,71.7,90.8,71.7z"/>
		<path class="st1" d="M90.8,86.3h7.3c0.6,0,1,0.5,1,1v7.3c0,0.6-0.5,1-1,1h-7.3c-0.6,0-1-0.5-1-1v-7.3
			C89.7,86.8,90.2,86.3,90.8,86.3z"/>
		<path class="st1" d="M90.8,100.9h7.3c0.6,0,1,0.5,1,1v7.3c0,0.6-0.5,1-1,1h-7.3c-0.6,0-1-0.5-1-1V102
			C89.7,101.4,90.2,100.9,90.8,100.9z"/>
		<path class="st1" d="M90.8,115.6h7.3c0.6,0,1,0.5,1,1v7.3c0,0.6-0.5,1-1,1h-7.3c-0.6,0-1-0.5-1-1v-7.3
			C89.7,116,90.2,115.6,90.8,115.6z"/>
		<path class="st1" d="M90.8,130.2h7.3c0.6,0,1,0.5,1,1v7.3c0,0.6-0.5,1-1,1h-7.3c-0.6,0-1-0.5-1-1v-7.3
			C89.7,130.7,90.2,130.2,90.8,130.2z"/>
		<path class="st1" d="M104.3,71.7h7.3c0.6,0,1,0.5,1,1V80c0,0.6-0.5,1-1,1h-7.3c-0.6,0-1-0.5-1-1v-7.3
			C103.3,72.1,103.8,71.7,104.3,71.7z"/>
		<path class="st1" d="M104.3,86.3h7.3c0.6,0,1,0.5,1,1v7.3c0,0.6-0.5,1-1,1h-7.3c-0.6,0-1-0.5-1-1v-7.3
			C103.3,86.8,103.8,86.3,104.3,86.3z"/>
		<path class="st1" d="M104.3,100.9h7.3c0.6,0,1,0.5,1,1v7.3c0,0.6-0.5,1-1,1h-7.3c-0.6,0-1-0.5-1-1V102
			C103.3,101.4,103.8,100.9,104.3,100.9z"/>
		<path class="st1" d="M104.3,115.6h7.3c0.6,0,1,0.5,1,1v7.3c0,0.6-0.5,1-1,1h-7.3c-0.6,0-1-0.5-1-1v-7.3
			C103.3,116,103.8,115.6,104.3,115.6z"/>
		<path class="st1" d="M117.9,71.7h7.3c0.6,0,1,0.5,1,1V80c0,0.6-0.5,1-1,1h-7.3c-0.6,0-1-0.5-1-1v-7.3
			C116.9,72.1,117.3,71.7,117.9,71.7z"/>
		<path class="st1" d="M117.9,86.3h7.3c0.6,0,1,0.5,1,1v7.3c0,0.6-0.5,1-1,1h-7.3c-0.6,0-1-0.5-1-1v-7.3
			C116.9,86.8,117.3,86.3,117.9,86.3z"/>
		<path class="st1" d="M117.9,100.9h7.3c0.6,0,1,0.5,1,1v7.3c0,0.6-0.5,1-1,1h-7.3c-0.6,0-1-0.5-1-1V102
			C116.9,101.4,117.3,100.9,117.9,100.9z"/>
		<path class="st2" d="M117.9,115.6h7.3c0.6,0,1,0.5,1,1v7.3c0,0.6-0.5,1-1,1h-7.3c-0.6,0-1-0.5-1-1v-7.3
			C116.9,116,117.3,115.6,117.9,115.6z"/>
		<path class="st1" d="M131.5,71.7h7.3c0.6,0,1,0.5,1,1V80c0,0.6-0.5,1-1,1h-7.3c-0.6,0-1-0.5-1-1v-7.3
			C130.5,72.1,130.9,71.7,131.5,71.7z"/>
		<path class="st1" d="M131.5,86.3h7.3c0.6,0,1,0.5,1,1v7.3c0,0.6-0.5,1-1,1h-7.3c-0.6,0-1-0.5-1-1v-7.3
			C130.5,86.8,130.9,86.3,131.5,86.3z"/>
		<path class="st1" d="M131.5,100.9h7.3c0.6,0,1,0.5,1,1v7.3c0,0.6-0.5,1-1,1h-7.3c-0.6,0-1-0.5-1-1V102
			C130.5,101.4,130.9,100.9,131.5,100.9z"/>
		<path class="st1" d="M131.5,115.6h7.3c0.6,0,1,0.5,1,1v7.3c0,0.6-0.5,1-1,1h-7.3c-0.6,0-1-0.5-1-1v-7.3
			C130.5,116,130.9,115.6,131.5,115.6z"/>
		<line class="st3" x1="140.9" y1="62.8" x2="55.2" y2="62.8"/>
		<g>
			<circle class="st0" cx="42.7" cy="45.6" r="25.1"/>
		</g>
		<path class="st2" d="M40.1,61.2c2.4,0,4.3-1.7,4.8-3.9h-9.6C35.7,59.5,37.7,61.2,40.1,61.2z"/>
		<path class="st2" d="M50,48.8C49.9,48.8,49.9,48.8,50,48.8c-5.9,0-10.5-4.7-10.5-10.4c0-2.3,0.7-4.4,2-6.1v-1.1
			c0-0.7-0.6-1.3-1.3-1.3c-0.7,0-1.3,0.6-1.3,1.3v1.4c-4.4,0.6-7.8,4.4-7.8,9v3.6c0,2.6-1.1,5-3.1,6.7c-0.5,0.4-0.8,1.1-0.8,1.7
			c0,1.3,1,2.3,2.3,2.3h21.5c1.3,0,2.3-1,2.3-2.3c0-0.7-0.3-1.3-0.8-1.7C51.3,51.1,50.5,50,50,48.8z"/>
		<path class="st2" d="M49.9,29.9c-4.7,0-8.5,3.8-8.5,8.5c0,4.7,3.8,8.5,8.5,8.5c4.7,0,8.5-3.8,8.5-8.5
			C58.4,33.7,54.6,29.9,49.9,29.9z M53.1,39.7h-2v2c0,0.7-0.6,1.3-1.3,1.3c-0.7,0-1.3-0.6-1.3-1.3v-2h-2c-0.7,0-1.3-0.6-1.3-1.3
			c0-0.7,0.6-1.3,1.3-1.3h2v-2c0-0.7,0.6-1.3,1.3-1.3c0.7,0,1.3,0.6,1.3,1.3v2h2c0.7,0,1.3,0.6,1.3,1.3
			C54.5,39.1,53.9,39.7,53.1,39.7z"/>
	</g>
</g>
</svg>
