<svg width="178" height="181" viewBox="0 0 178 181" fill="none" xmlns="http://www.w3.org/2000/svg">
<g filter="url(#filter0_d)">
<rect x="28.584" y="20.8091" width="112.832" height="112.832" rx="5.22371" fill="white"/>
</g>
<path d="M75.6594 34.9301V35.7032H73.6744V42.2119H72.7237V35.7032H70.7283V34.9301H75.6594ZM79.3267 42.3059C78.7904 42.3059 78.3028 42.1841 77.864 41.9403C77.4322 41.6965 77.0909 41.3517 76.8402 40.906C76.5964 40.4533 76.4745 39.9309 76.4745 39.3389C76.4745 38.7538 76.5999 38.2384 76.8506 37.7927C77.1083 37.3399 77.4566 36.9952 77.8954 36.7584C78.3341 36.5146 78.8252 36.3927 79.3684 36.3927C79.9117 36.3927 80.4027 36.5146 80.8415 36.7584C81.2803 36.9952 81.6251 37.3364 81.8758 37.7822C82.1335 38.228 82.2624 38.7469 82.2624 39.3389C82.2624 39.9309 82.13 40.4533 81.8654 40.906C81.6077 41.3517 81.2559 41.6965 80.8102 41.9403C80.3644 42.1841 79.8699 42.3059 79.3267 42.3059ZM79.3267 41.4701C79.6679 41.4701 79.9883 41.3901 80.2878 41.2299C80.5873 41.0697 80.8276 40.8294 81.0087 40.509C81.1967 40.1886 81.2908 39.7986 81.2908 39.3389C81.2908 38.8792 81.2002 38.4891 81.0191 38.1688C80.838 37.8484 80.6012 37.6116 80.3087 37.4583C80.0162 37.2981 79.6993 37.218 79.358 37.218C79.0097 37.218 78.6894 37.2981 78.3968 37.4583C78.1113 37.6116 77.8814 37.8484 77.7073 38.1688C77.5332 38.4891 77.4461 38.8792 77.4461 39.3389C77.4461 39.8055 77.5297 40.199 77.6969 40.5194C77.871 40.8398 78.1008 41.0801 78.3864 41.2403C78.6719 41.3935 78.9854 41.4701 79.3267 41.4701ZM83.1572 39.3284C83.1572 38.7434 83.2756 38.2314 83.5124 37.7927C83.7492 37.3469 84.0731 37.0021 84.484 36.7584C84.9019 36.5146 85.3686 36.3927 85.884 36.3927C86.3297 36.3927 86.7441 36.4972 87.1272 36.7061C87.5103 36.9081 87.8028 37.1763 88.0048 37.5106V34.4808H88.966V42.2119H88.0048V41.1358C87.8167 41.4771 87.5381 41.7592 87.169 41.9821C86.7999 42.198 86.368 42.3059 85.8735 42.3059C85.3651 42.3059 84.9019 42.1806 84.484 41.9298C84.0731 41.6791 83.7492 41.3274 83.5124 40.8746C83.2756 40.4219 83.1572 39.9065 83.1572 39.3284ZM88.0048 39.3389C88.0048 38.907 87.9177 38.5309 87.7436 38.2106C87.5695 37.8902 87.3327 37.6464 87.0332 37.4792C86.7406 37.3051 86.4168 37.218 86.0616 37.218C85.7064 37.218 85.3825 37.3016 85.09 37.4688C84.7974 37.6359 84.5641 37.8797 84.39 38.2001C84.2159 38.5205 84.1288 38.8966 84.1288 39.3284C84.1288 39.7672 84.2159 40.1503 84.39 40.4776C84.5641 40.798 84.7974 41.0453 85.09 41.2194C85.3825 41.3866 85.7064 41.4701 86.0616 41.4701C86.4168 41.4701 86.7406 41.3866 87.0332 41.2194C87.3327 41.0453 87.5695 40.798 87.7436 40.4776C87.9177 40.1503 88.0048 39.7707 88.0048 39.3389ZM90.2174 39.3284C90.2174 38.7434 90.3358 38.2314 90.5726 37.7927C90.8094 37.3469 91.1332 37.0021 91.5442 36.7584C91.9621 36.5146 92.4252 36.3927 92.9337 36.3927C93.4352 36.3927 93.8705 36.5007 94.2396 36.7166C94.6088 36.9325 94.8839 37.2041 95.065 37.5315V36.4867H96.0261V42.2119H95.065V41.1463C94.8769 41.4806 94.5948 41.7592 94.2187 41.9821C93.8496 42.198 93.4177 42.3059 92.9232 42.3059C92.4148 42.3059 91.9551 42.1806 91.5442 41.9298C91.1332 41.6791 90.8094 41.3274 90.5726 40.8746C90.3358 40.4219 90.2174 39.9065 90.2174 39.3284ZM95.065 39.3389C95.065 38.907 94.9779 38.5309 94.8038 38.2106C94.6297 37.8902 94.3928 37.6464 94.0933 37.4792C93.8008 37.3051 93.477 37.218 93.1217 37.218C92.7665 37.218 92.4427 37.3016 92.1501 37.4688C91.8576 37.6359 91.6243 37.8797 91.4502 38.2001C91.276 38.5205 91.189 38.8966 91.189 39.3284C91.189 39.7672 91.276 40.1503 91.4502 40.4776C91.6243 40.798 91.8576 41.0453 92.1501 41.2194C92.4427 41.3866 92.7665 41.4701 93.1217 41.4701C93.477 41.4701 93.8008 41.3866 94.0933 41.2194C94.3928 41.0453 94.6297 40.798 94.8038 40.4776C94.9779 40.1503 95.065 39.7707 95.065 39.3389ZM76.1087 52.4867L72.661 60.9073H71.679L72.8073 58.1492L70.4984 52.4867H71.5536L73.3506 57.1254L75.1266 52.4867H76.1087Z" fill="#686C75"/>
<rect x="66.1953" y="56.3306" width="9.40268" height="9.40268" rx="1.04474" fill="#E9E9E9"/>
<rect x="66.1953" y="70.957" width="9.40268" height="9.40268" rx="1.04474" fill="#E9E9E9"/>
<rect x="66.1953" y="85.5835" width="9.40268" height="9.40268" rx="1.04474" fill="#E9E9E9"/>
<rect x="66.1953" y="100.21" width="9.40268" height="9.40268" rx="1.04474" fill="#E9E9E9"/>
<rect x="66.1953" y="114.836" width="9.40268" height="9.40268" rx="1.04474" fill="#E9E9E9"/>
<rect x="52.6143" y="70.957" width="9.40268" height="9.40268" rx="1.04474" fill="#FD5B2F"/>
<rect x="52.6143" y="85.5835" width="9.40268" height="9.40268" rx="1.04474" fill="#E9E9E9"/>
<rect x="52.6143" y="100.21" width="9.40268" height="9.40268" rx="1.04474" fill="#E9E9E9"/>
<rect x="52.6143" y="114.836" width="9.40268" height="9.40268" rx="1.04474" fill="#E9E9E9"/>
<rect x="39.0322" y="70.957" width="9.40268" height="9.40268" rx="1.04474" fill="#E9E9E9"/>
<rect x="39.0322" y="85.5835" width="9.40268" height="9.40268" rx="1.04474" fill="#E9E9E9"/>
<rect x="39.0322" y="100.21" width="9.40268" height="9.40268" rx="1.04474" fill="#E9E9E9"/>
<rect x="39.0322" y="114.836" width="9.40268" height="9.40268" rx="1.04474" fill="#FD5B2F"/>
<rect x="79.7773" y="56.3306" width="9.40268" height="9.40268" rx="1.04474" fill="#E9E9E9"/>
<rect x="79.7773" y="70.957" width="9.40268" height="9.40268" rx="1.04474" fill="#E9E9E9"/>
<rect x="79.7773" y="85.5835" width="9.40268" height="9.40268" rx="1.04474" fill="#E9E9E9"/>
<rect x="79.7773" y="100.21" width="9.40268" height="9.40268" rx="1.04474" fill="#E9E9E9"/>
<rect x="79.7773" y="114.836" width="9.40268" height="9.40268" rx="1.04474" fill="#E9E9E9"/>
<rect x="93.3584" y="56.3306" width="9.40268" height="9.40268" rx="1.04474" fill="#E9E9E9"/>
<rect x="93.3584" y="70.957" width="9.40268" height="9.40268" rx="1.04474" fill="#E9E9E9"/>
<rect x="93.3584" y="85.5835" width="9.40268" height="9.40268" rx="1.04474" fill="#E9E9E9"/>
<rect x="93.3584" y="100.21" width="9.40268" height="9.40268" rx="1.04474" fill="#E9E9E9"/>
<rect x="106.94" y="56.3306" width="9.40268" height="9.40268" rx="1.04474" fill="#E9E9E9"/>
<rect x="106.94" y="70.957" width="9.40268" height="9.40268" rx="1.04474" fill="#E9E9E9"/>
<rect x="106.94" y="85.5835" width="9.40268" height="9.40268" rx="1.04474" fill="#E9E9E9"/>
<rect x="106.94" y="100.21" width="9.40268" height="9.40268" rx="1.04474" fill="#FD5B2F"/>
<rect x="120.521" y="56.3306" width="9.40268" height="9.40268" rx="1.04474" fill="#E9E9E9"/>
<rect x="120.521" y="70.957" width="9.40268" height="9.40268" rx="1.04474" fill="#E9E9E9"/>
<rect x="120.521" y="85.5835" width="9.40268" height="9.40268" rx="1.04474" fill="#E9E9E9"/>
<rect x="120.521" y="100.21" width="9.40268" height="9.40268" rx="1.04474" fill="#E9E9E9"/>
<line x1="130.969" y1="47.4501" x2="45.2999" y2="47.4501" stroke="#E9E9E9" stroke-width="1.04474"/>
<g filter="url(#filter1_d)">
<circle cx="32.7623" cy="30.2118" r="25.0738" fill="white"/>
</g>
<path d="M30.1515 45.8829C32.5165 45.8829 34.495 44.1969 34.9495 41.9651H25.3535C25.808 44.1969 27.7865 45.8829 30.1515 45.8829Z" fill="#FD5B2F"/>
<path d="M40.0448 33.4716C40.0108 33.4716 39.9795 33.4769 39.9455 33.4769C34.1851 33.4769 29.4981 28.7899 29.4981 23.0294C29.4981 20.7663 30.2294 18.6755 31.457 16.9621V15.8468C31.457 15.1246 30.872 14.5409 30.1511 14.5409C29.4302 14.5409 28.8452 15.1246 28.8452 15.8468V17.2572C24.422 17.8945 21.0096 21.6987 21.0096 26.2942V29.9352C21.0096 32.5196 19.8773 34.9591 17.891 36.6385C17.383 37.0734 17.0918 37.7055 17.0918 38.3741C17.0918 39.6343 18.117 40.6595 19.3772 40.6595H40.925C42.1852 40.6595 43.2104 39.6343 43.2104 38.3741C43.2104 37.7055 42.9191 37.0734 42.3981 36.6281C41.369 35.757 40.575 34.6731 40.0448 33.4716Z" fill="#FD5B2F"/>
<path d="M39.9456 14.5408C35.2651 14.5408 31.457 18.3489 31.457 23.0293C31.457 27.7098 35.2651 31.5178 39.9456 31.5178C44.626 31.5178 48.4341 27.7098 48.4341 23.0293C48.4341 18.3489 44.626 14.5408 39.9456 14.5408ZM43.2104 24.3352H41.2515V26.2941C41.2515 27.015 40.6664 27.6001 39.9456 27.6001C39.2247 27.6001 38.6396 27.015 38.6396 26.2941V24.3352H36.6807C35.9599 24.3352 35.3748 23.7502 35.3748 23.0293C35.3748 22.3084 35.9599 21.7234 36.6807 21.7234H38.6396V19.7645C38.6396 19.0436 39.2247 18.4586 39.9456 18.4586C40.6664 18.4586 41.2515 19.0436 41.2515 19.7645V21.7234H43.2104C43.9313 21.7234 44.5163 22.3084 44.5163 23.0293C44.5163 23.7502 43.9313 24.3352 43.2104 24.3352Z" fill="#FD5B2F"/>
<defs>
<filter id="filter0_d" x="2.46543" y="5.13795" width="175.517" height="175.517" filterUnits="userSpaceOnUse" color-interpolation-filters="sRGB">
<feFlood flood-opacity="0" result="BackgroundImageFix"/>
<feColorMatrix in="SourceAlpha" type="matrix" values="0 0 0 0 0 0 0 0 0 0 0 0 0 0 0 0 0 0 127 0" result="hardAlpha"/>
<feOffset dx="5.22371" dy="15.6711"/>
<feGaussianBlur stdDeviation="15.6711"/>
<feColorMatrix type="matrix" values="0 0 0 0 0 0 0 0 0 0 0 0 0 0 0 0 0 0 0.1 0"/>
<feBlend mode="normal" in2="BackgroundImageFix" result="effect1_dropShadow"/>
<feBlend mode="normal" in="SourceGraphic" in2="effect1_dropShadow" result="shape"/>
</filter>
<filter id="filter1_d" x="0.37528" y="0.95897" width="71.0425" height="71.0425" filterUnits="userSpaceOnUse" color-interpolation-filters="sRGB">
<feFlood flood-opacity="0" result="BackgroundImageFix"/>
<feColorMatrix in="SourceAlpha" type="matrix" values="0 0 0 0 0 0 0 0 0 0 0 0 0 0 0 0 0 0 127 0" result="hardAlpha"/>
<feOffset dx="3.13423" dy="6.26845"/>
<feGaussianBlur stdDeviation="5.22371"/>
<feColorMatrix type="matrix" values="0 0 0 0 0 0 0 0 0 0 0 0 0 0 0 0 0 0 0.08 0"/>
<feBlend mode="normal" in2="BackgroundImageFix" result="effect1_dropShadow"/>
<feBlend mode="normal" in="SourceGraphic" in2="effect1_dropShadow" result="shape"/>
</filter>
</defs>
</svg>
