<svg width="27" height="21" viewBox="0 0 27 21" fill="none" xmlns="http://www.w3.org/2000/svg">
<circle cx="7.99084" cy="13.104" r="7.83557" fill="#13DED2"/>
<path d="M20.9559 7.48363C20.9482 7.48363 20.9404 7.48363 20.9328 7.48368C19.0557 7.49159 17.4038 8.46659 16.4551 9.96424H10.734V9.6951V8.69835C10.734 8.29951 10.4095 7.97507 10.0107 7.97507H8.52296C8.12412 7.97507 7.79968 8.29955 7.79968 8.69835V9.6951V9.96424H7.56768C6.69846 9.96424 5.99134 9.25708 5.99134 8.38787V6.04569C5.99134 5.17647 6.69846 4.46932 7.56768 4.46932H22.4269C23.2961 4.46932 24.0032 5.17647 24.0032 6.04569V7.67703C24.0032 7.84615 24.1403 7.98323 24.3094 7.98323C24.4785 7.98323 24.6156 7.84615 24.6156 7.67703V6.04569C24.6156 4.83881 23.6337 3.85692 22.4268 3.85692H19.168V2.49088C19.168 1.14206 18.0706 0.0446777 16.7218 0.0446777H13.2727C11.9239 0.0446777 10.8265 1.14206 10.8265 2.49088V3.85692H7.56768C6.36076 3.85692 5.37891 4.83881 5.37891 6.04569V15.3365C5.37891 16.5434 6.36076 17.5253 7.56768 17.5253H16.8636C17.0327 17.5253 17.1698 17.3882 17.1698 17.2191C17.1698 17.05 17.0327 16.9129 16.8636 16.9129H7.56768C6.69846 16.9129 5.99134 16.2057 5.99134 15.3365V9.904C6.38981 10.3181 6.94895 10.5766 7.56768 10.5766H7.79968V10.9021C7.79968 11.7077 8.45448 12.3693 9.26685 12.3693C10.0725 12.3693 10.734 11.7145 10.734 10.9021V10.5766H16.1219C15.8011 11.2723 15.6334 12.0356 15.6368 12.8245C15.6491 15.7496 18.0326 18.1207 20.9549 18.1206C20.9624 18.1206 20.9701 18.1206 20.9776 18.1206C23.917 18.1082 26.2861 15.7195 26.2737 12.7797C26.2615 9.88405 23.9178 7.48363 20.9559 7.48363ZM17.2953 3.85692H12.6991V2.49088C12.6991 2.1746 12.9564 1.91725 13.2727 1.91725H16.7218C17.0381 1.91725 17.2954 2.17456 17.2954 2.49088V3.85692H17.2953ZM11.4389 2.49088C11.4389 1.47973 12.2616 0.657075 13.2727 0.657075H16.7218C17.733 0.657075 18.5556 1.47973 18.5556 2.49088V3.85692H17.9078V2.49088C17.9078 1.8369 17.3758 1.30485 16.7218 1.30485H13.2727C12.6187 1.30485 12.0867 1.8369 12.0867 2.49088V3.85692H11.4389V2.49088ZM8.52296 8.58747H10.0107C10.0719 8.58747 10.1216 8.63722 10.1216 8.69835V9.3889H8.41208V8.69835C8.41208 8.63717 8.46183 8.58747 8.52296 8.58747ZM8.41208 10.9021V10.0013H10.1216V10.9021C10.1216 11.3735 9.73812 11.7569 9.26681 11.7569C8.79549 11.7569 8.41208 11.3735 8.41208 10.9021ZM20.9751 17.5082C20.9683 17.5082 20.9617 17.5082 20.9549 17.5082C18.3693 17.5081 16.2601 15.4101 16.2492 12.822C16.2382 10.2259 18.3283 8.10709 20.9354 8.09607C20.9422 8.09603 20.949 8.09603 20.9558 8.09603C23.5114 8.09603 25.6502 10.1554 25.6613 12.7823C25.6722 15.3832 23.5763 17.4972 20.9751 17.5082Z" fill="black"/>
<path d="M20.956 8.6272C20.9501 8.6272 20.944 8.6272 20.9381 8.62724C18.86 8.63601 17.1083 10.1735 16.8214 12.2166C16.7979 12.3841 16.9145 12.5389 17.082 12.5624C17.2492 12.5857 17.4043 12.4693 17.4278 12.3018C17.6731 10.5552 19.1712 9.2471 20.9406 9.23964C20.9458 9.23964 20.9509 9.23959 20.9561 9.23959C22.8908 9.23959 24.5099 10.7986 24.5183 12.7873C24.5267 14.7562 22.9399 16.3567 20.9707 16.365C20.9654 16.365 20.9602 16.365 20.9549 16.365C19.2377 16.365 17.8491 15.1617 17.4872 13.6203C17.4485 13.4557 17.2835 13.3537 17.1191 13.3922C16.9545 13.4309 16.8524 13.5957 16.891 13.7603C17.3231 15.6001 18.9767 16.9774 20.9558 16.9774C20.9616 16.9774 20.9674 16.9774 20.9732 16.9774C23.2807 16.9677 25.1405 15.0925 25.1307 12.7847C25.1211 10.4885 23.2501 8.6272 20.956 8.6272Z" fill="black"/>
<path d="M20.0029 12.8063C20.0052 13.3296 20.4316 13.7538 20.9545 13.7538H20.9585C21.1136 13.7532 21.2628 13.7155 21.3962 13.6454L22.1697 14.3816C22.2928 14.4987 22.4866 14.4929 22.6026 14.3709C22.7192 14.2484 22.7144 14.0546 22.5919 13.938L21.8186 13.202C21.8765 13.0771 21.9067 12.94 21.9061 12.7983C21.9043 12.3808 21.6325 12.0267 21.2572 11.9004L21.2504 10.11C21.2498 9.94124 21.1128 9.80493 20.9443 9.80493C20.9439 9.80493 20.9434 9.80493 20.9431 9.80493C20.774 9.80558 20.6374 9.9432 20.638 10.1123L20.6448 11.9027C20.2704 12.032 20.0012 12.3886 20.0029 12.8063ZM20.9531 12.4631H20.9545C21.1408 12.4631 21.2929 12.6143 21.2937 12.8008C21.2945 12.9883 21.1434 13.1407 20.9559 13.1414C20.9554 13.1414 20.955 13.1414 20.9545 13.1414C20.7682 13.1414 20.6161 12.9902 20.6153 12.8037C20.6146 12.6167 20.7661 12.4639 20.9531 12.4631Z" fill="black"/>
</svg>
