<svg width="23" height="24" viewBox="0 0 23 24" fill="none" xmlns="http://www.w3.org/2000/svg">
<circle cx="7.92639" cy="15.1936" r="7.83557" fill="#FCD25F"/>
<path d="M7.47545 6.43698H15.6934C15.9106 6.43698 16.0869 6.26076 16.0869 6.04356C16.0869 5.82623 15.9106 5.65015 15.6934 5.65015H7.47545C7.25825 5.65015 7.08203 5.82623 7.08203 6.04356C7.08203 6.26076 7.25825 6.43698 7.47545 6.43698Z" fill="black"/>
<path d="M7.47545 9.05978H15.6934C15.9106 9.05978 16.0869 8.88356 16.0869 8.66636C16.0869 8.44903 15.9106 8.27295 15.6934 8.27295H7.47545C7.25825 8.27295 7.08203 8.44903 7.08203 8.66636C7.08203 8.88356 7.25825 9.05978 7.47545 9.05978Z" fill="black"/>
<path d="M15.6934 11.2454C15.9106 11.2454 16.0869 11.0692 16.0869 10.852C16.0869 10.6347 15.9106 10.4586 15.6934 10.4586H7.47545C7.25825 10.4586 7.08203 10.6347 7.08203 10.852C7.08203 11.0692 7.25825 11.2454 7.47545 11.2454H15.6934Z" fill="black"/>
<path d="M22.0306 14.65C22.0307 13.8806 21.4435 13.2383 20.677 13.1694C19.9107 13.1007 19.2185 13.6284 19.0819 14.3857C18.945 15.1429 19.4088 15.8792 20.1509 16.083V18.327H18.5336V3.42093C18.5336 3.20359 18.3574 3.02751 18.1402 3.02751H15.9108V0.438214C15.9108 0.221017 15.7346 0.0447998 15.5174 0.0447998H7.6491C7.4319 0.0447998 7.25569 0.221017 7.25569 0.438214V3.02751H5.02634C4.80914 3.02751 4.63292 3.20359 4.63292 3.42093V18.327H3.01555V16.083C3.73299 15.886 4.19443 15.1887 4.09498 14.4513C3.99567 13.7138 3.36621 13.1635 2.62214 13.1635C1.87793 13.1635 1.2486 13.7138 1.14916 14.4513C1.04985 15.1887 1.51115 15.886 2.22872 16.083V18.327H1.52932C1.31212 18.327 1.13591 18.503 1.13591 18.7204C1.13591 18.9376 1.31212 19.1138 1.52932 19.1138H21.6372C21.8544 19.1138 22.0306 18.9376 22.0306 18.7204C22.0306 18.503 21.8544 18.327 21.6372 18.327H20.9378V16.083C21.5827 15.9051 22.0298 15.319 22.0306 14.65ZM1.92273 14.65C1.92273 14.2637 2.23583 13.9506 2.62214 13.9506C3.00831 13.9506 3.32154 14.2637 3.32154 14.65C3.32154 15.0362 3.00831 15.3494 2.62214 15.3494C2.2361 15.3489 1.92328 15.0361 1.92273 14.65ZM8.04252 0.831629H15.124V3.02751H8.04252V0.831629ZM5.41975 3.81434H17.7467V18.327H15.4737V17.2429C15.4737 17.0257 15.2975 16.8495 15.0803 16.8495H14.3809V13.1047C14.3809 12.8873 14.2046 12.7112 13.9874 12.7112H9.17905C8.96185 12.7112 8.78563 12.8873 8.78563 13.1047V16.8495H8.08623C7.86903 16.8495 7.69281 17.0256 7.69281 17.2429V18.327H5.41975V3.81434ZM13.594 16.8495H11.9767V13.4981H13.594V16.8495ZM11.1898 16.8495H9.57246V13.4981H11.1898V16.8495ZM14.6869 17.6363V18.327H8.47964V17.6363H14.6869ZM19.845 14.65C19.845 14.2637 20.158 13.9506 20.5444 13.9506C20.9305 13.9506 21.2438 14.2637 21.2438 14.65C21.2438 15.0362 20.9305 15.3494 20.5444 15.3494C20.1583 15.3489 19.8455 15.0361 19.845 14.65Z" fill="black"/>
</svg>
