<svg width="20" height="22" viewBox="0 0 20 22" fill="none" xmlns="http://www.w3.org/2000/svg">
<path fill-rule="evenodd" clip-rule="evenodd" d="M6.25 0.930908H13.75C17.2013 0.930908 20 3.74425 20 7.21349V14.7526C20 18.2218 17.2013 21.0352 13.75 21.0352H6.25C2.79875 21.0352 0 18.2218 0 14.7526V7.21349C0 3.74425 2.79875 0.930908 6.25 0.930908ZM13.75 19.1504C16.1625 19.1504 18.125 17.1777 18.125 14.7526V7.21349C18.125 4.78841 16.1625 2.81568 13.75 2.81568H6.25C3.8375 2.81568 1.875 4.78841 1.875 7.21349V14.7526C1.875 17.1777 3.8375 19.1504 6.25 19.1504H13.75Z" fill="#1E2833"/>
<path fill-rule="evenodd" clip-rule="evenodd" d="M5 10.9831C5 8.20745 7.23875 5.95703 10 5.95703C12.7613 5.95703 15 8.20745 15 10.9831C15 13.7587 12.7613 16.0092 10 16.0092C7.23875 16.0092 5 13.7587 5 10.9831ZM6.875 10.9831C6.875 12.7146 8.2775 14.1244 10 14.1244C11.7225 14.1244 13.125 12.7146 13.125 10.9831C13.125 9.25036 11.7225 7.8418 10 7.8418C8.2775 7.8418 6.875 9.25036 6.875 10.9831Z" fill="#1E2833"/>
<ellipse cx="15.375" cy="5.58012" rx="0.66625" ry="0.669724" fill="#1E2833"/>
</svg>
