<svg width="94" height="134" viewBox="0 0 94 134" fill="none" xmlns="http://www.w3.org/2000/svg">
<circle cx="47" cy="58" r="47" fill="white"/>
<circle cx="47" cy="58" r="38" fill="#FD5B2F"/>
<path d="M24.32 64.376C24.32 57.016 24.736 51.736 25.568 48.536C26.464 45.272 28.224 43.032 30.848 41.816C33.536 40.6 37.92 39.992 44 39.992V51.224C40.736 51.224 38.592 51.288 37.568 51.416C36.544 51.544 35.872 51.928 35.552 52.568C35.232 53.208 35.072 54.424 35.072 56.216H44V74.168H24.32V64.376ZM49.28 64.376C49.28 57.016 49.696 51.736 50.528 48.536C51.424 45.272 53.184 43.032 55.808 41.816C58.496 40.6 62.88 39.992 68.96 39.992V51.224C65.696 51.224 63.552 51.288 62.528 51.416C61.504 51.544 60.832 51.928 60.512 52.568C60.192 53.208 60.032 54.424 60.032 56.216H68.96V74.168H49.28V64.376Z" fill="white"/>
</svg>
