<svg width="20" height="17" viewBox="0 0 20 17" fill="none" xmlns="http://www.w3.org/2000/svg">
<path d="M19.5556 2.62884C18.8283 2.9495 18.0534 3.16205 17.2456 3.26525C18.0767 2.76644 18.711 1.9826 19.0092 1.03781C18.2343 1.50222 17.3788 1.83026 16.467 2.01332C15.7312 1.22579 14.6826 0.738037 13.5386 0.738037C11.319 0.738037 9.53211 2.54898 9.53211 4.76905C9.53211 5.08849 9.559 5.39563 9.625 5.68804C6.292 5.52464 3.34278 3.91886 1.36156 1.47274C1.01567 2.07598 0.812778 2.76644 0.812778 3.50974C0.812778 4.90543 1.52778 6.14262 2.59356 6.85889C1.94944 6.8466 1.31756 6.65863 0.782222 6.36254C0.782222 6.37482 0.782222 6.39079 0.782222 6.40677C0.782222 8.36514 2.17189 9.9918 3.99422 10.3665C3.66789 10.4562 3.31222 10.4992 2.94311 10.4992C2.68644 10.4992 2.42733 10.4845 2.18411 10.4304C2.70356 12.0264 4.17756 13.1997 5.93022 13.2377C4.56622 14.3103 2.83433 14.9565 0.959444 14.9565C0.630667 14.9565 0.315333 14.9418 0 14.9013C1.77589 16.0525 3.88056 16.7097 6.15022 16.7097C13.5276 16.7097 17.5609 10.5668 17.5609 5.24206C17.5609 5.06391 17.5548 4.89191 17.5462 4.72114C18.3419 4.15353 19.0104 3.44463 19.5556 2.62884Z" fill="#1E2833"/>
</svg>
